<svg xmlns="http://www.w3.org/2000/svg" viewBox="0 0 256 256" width="256" height="256" aria-hidden="true">
  <g fill-rule="evenodd" stroke-linejoin="round" stroke-linecap="round">
    <ellipse cx="128" cy="118" rx="58" ry="64" fill="#e8a070" stroke="#2d1810" stroke-width="3.5"/>
    <path d="M 90 152 Q 128 180 166 152 Q 158 172 128 178 Q 98 172 90 152 Z" fill="#c87848" stroke="none"/>
    <ellipse cx="74" cy="122" rx="14" ry="20" fill="#e8a070" stroke="#2d1810" stroke-width="3.5"/>
    <ellipse cx="182" cy="122" rx="14" ry="20" fill="#e8a070" stroke="#2d1810" stroke-width="3.5"/>
    <path d="M 104 172 Q 128 192 152 172 L 148 198 L 108 198 Z" fill="#e8a070" stroke="#2d1810" stroke-width="3.5"/>
    <path d="M 94 106 Q 128 98 162 106" fill="none" stroke="#3d2314" stroke-width="3" stroke-linecap="round"/>
    <ellipse cx="102" cy="118" rx="18" ry="20" fill="#f8fafc" stroke="#2d1810" stroke-width="3"/>
    <ellipse cx="154" cy="118" rx="18" ry="20" fill="#f8fafc" stroke="#2d1810" stroke-width="3"/>
    <ellipse cx="104" cy="122" rx="9" ry="11" fill="#1a0f0a"/>
    <ellipse cx="152" cy="122" rx="9" ry="11" fill="#1a0f0a"/>
    <circle cx="108" cy="116" r="5" fill="#f8fafc"/>
    <circle cx="156" cy="116" r="5" fill="#f8fafc"/>
    <ellipse cx="128" cy="142" rx="6" ry="4" fill="#c87848" stroke="#2d1810" stroke-width="2"/>
    <path d="M 104 158 Q 128 174 152 158" fill="none" stroke="#2d1810" stroke-width="3.5" stroke-linecap="round"/>
    <path d="M 88 100 Q 100 92 110 100" fill="none" stroke="#3d2314" stroke-width="3" stroke-linecap="round"/>
    <path d="M 146 100 Q 158 92 168 100" fill="none" stroke="#3d2314" stroke-width="3" stroke-linecap="round"/>
    <ellipse cx="88" cy="140" rx="10" ry="6" fill="#f07830" opacity="0.3"/>
    <ellipse cx="168" cy="140" rx="10" ry="6" fill="#f07830" opacity="0.3"/>
  </g>
</svg>
