<svg xmlns="http://www.w3.org/2000/svg" viewBox="0 0 256 256" width="256" height="256" aria-hidden="true">
  <g fill-rule="evenodd" stroke-linejoin="round" stroke-linecap="round">
    <path d="M 72 118 Q 68 92 88 72 Q 128 48 168 72 Q 188 92 184 118 Q 188 148 168 168 Q 128 188 88 168 Q 68 148 72 118 Z" fill="#6b4423" stroke="#2d1810" stroke-width="3.5"/>
    <path d="M 88 148 Q 128 176 168 148 L 164 168 Q 128 182 92 168 Z" fill="#4a2f18" stroke="none"/>
    <path d="M 100 168 L 128 188 L 156 168 L 152 198 L 104 198 Z" fill="#6b4423" stroke="#2d1810" stroke-width="3.5"/>
    <path d="M 96 108 Q 128 100 160 108" fill="none" stroke="#3d2314" stroke-width="3.5" stroke-linecap="round"/>
    <ellipse cx="104" cy="118" rx="16" ry="18" fill="#f8fafc" stroke="#2d1810" stroke-width="3"/>
    <ellipse cx="152" cy="118" rx="16" ry="18" fill="#f8fafc" stroke="#2d1810" stroke-width="3"/>
    <ellipse cx="106" cy="120" rx="8" ry="10" fill="#1a0f0a"/>
    <ellipse cx="150" cy="120" rx="8" ry="10" fill="#1a0f0a"/>
    <circle cx="109" cy="115" r="4" fill="#f8fafc"/>
    <circle cx="153" cy="115" r="4" fill="#f8fafc"/>
    <path d="M 120 138 L 128 132 L 136 138" fill="none" stroke="#4a2f18" stroke-width="3" stroke-linecap="round"/>
    <path d="M 108 152 Q 128 168 148 152" fill="none" stroke="#2d1810" stroke-width="3.5" stroke-linecap="round"/>
    <path d="M 92 98 Q 104 88 116 96" fill="none" stroke="#3d2314" stroke-width="3" stroke-linecap="round"/>
    <path d="M 140 96 Q 152 88 164 98" fill="none" stroke="#3d2314" stroke-width="3" stroke-linecap="round"/>
    <ellipse cx="92" cy="138" rx="8" ry="5" fill="#f07830" opacity="0.35"/>
    <ellipse cx="164" cy="138" rx="8" ry="5" fill="#f07830" opacity="0.35"/>
  </g>
</svg>
