<svg xmlns="http://www.w3.org/2000/svg" viewBox="0 0 256 256" width="256" height="256" aria-hidden="true">
  <g fill-rule="evenodd" stroke-linejoin="round" stroke-linecap="round">
<path d="M 78 118 L 70 88 L 98 64 L 128 54 L 158 64 L 186 88 L 178 118 L 182 148 L 158 170 L 128 180 L 98 170 L 74 148 Z" fill="#8d5524" stroke="#2d1810" stroke-width="3.5"/>
    <path d="M 92 148 Q 128 172 164 148 L 160 168 Q 128 180 96 168 Z" fill="#6b3f1a" stroke="none"/>
    <path d="M 102 165 L 128 176 L 154 165 L 150 194 L 106 194 Z" fill="#8d5524" stroke="#2d1810" stroke-width="3.5"/>
    <path d="M 94 108 Q 128 102 162 108" fill="none" stroke="#2d1810" stroke-width="3" stroke-linecap="round"/>
    <ellipse cx="106" cy="118" rx="15" ry="17" fill="#f8fafc" stroke="#2d1810" stroke-width="3"/>
    <ellipse cx="150" cy="118" rx="15" ry="17" fill="#f8fafc" stroke="#2d1810" stroke-width="3"/>
    <ellipse cx="108" cy="120" rx="7" ry="9" fill="#1a0f0a"/>
    <ellipse cx="148" cy="120" rx="7" ry="9" fill="#1a0f0a"/>
    <circle cx="111" cy="115" r="3.5" fill="#f8fafc"/>
    <circle cx="151" cy="115" r="3.5" fill="#f8fafc"/>
    <path d="M 118 138 L 128 134 L 138 138" fill="none" stroke="#6b3f1a" stroke-width="2.5" stroke-linecap="round"/>
    <path d="M 110 152 Q 128 162 146 152" fill="none" stroke="#2d1810" stroke-width="3" stroke-linecap="round"/>
    <path d="M 94 96 Q 106 88 118 94" fill="none" stroke="#2d1810" stroke-width="3" stroke-linecap="round"/>
    <path d="M 138 94 Q 150 88 162 96" fill="none" stroke="#2d1810" stroke-width="3" stroke-linecap="round"/>
  </g>
</svg>
