<svg xmlns="http://www.w3.org/2000/svg" viewBox="0 0 256 256" width="256" height="256" aria-hidden="true">
  <g fill-rule="evenodd" stroke-linejoin="round" stroke-linecap="round">
<path d="M 58 108 Q 52 72 94 52 Q 128 38 162 52 Q 204 72 198 108 Q 200 88 184 68 Q 128 48 72 68 Q 56 88 58 108 Z" fill="#4a3728" stroke="#2d1810" stroke-width="3.5"/>
    <path d="M 72 68 Q 128 56 184 68 L 176 58 Q 128 46 80 58 Z" fill="#6b5344" stroke="#2d1810" stroke-width="3"/>
    <path d="M 88 52 Q 128 44 168 52 L 160 48 Q 128 40 96 48 Z" fill="#6b5344" stroke="none"/>
    <path d="M 64 96 Q 128 84 192 96 L 188 104 Q 128 94 68 104 Z" fill="#4a3728" stroke="#2d1810" stroke-width="3"/>
  </g>
</svg>
