<svg xmlns="http://www.w3.org/2000/svg" viewBox="0 0 256 256" width="256" height="256" aria-hidden="true">
  <g fill-rule="evenodd" stroke-linejoin="round" stroke-linecap="round">
    <path d="M 64 100 Q 56 56 96 38 Q 128 26 160 38 Q 200 56 192 100 Q 198 76 182 48 Q 128 32 74 48 Q 58 76 64 100 Z" fill="#3d2314" stroke="#2d1810" stroke-width="3.5"/>
    <path d="M 74 48 Q 128 34 182 48 L 172 38 Q 128 26 84 38 Z" fill="#2d1810" stroke="none"/>
    <rect x="66" y="82" width="124" height="16" rx="8" fill="#3d2314" stroke="#2d1810" stroke-width="3"/>
    <path d="M 78 98 L 88 72 M 178 98 L 168 72" fill="none" stroke="#f07830" stroke-width="3" stroke-linecap="round"/>
    <path d="M 92 38 L 102 22 L 112 40 M 144 40 L 154 22 L 164 38" fill="none" stroke="#f5a830" stroke-width="2.5" stroke-linecap="round"/>
  </g>
</svg>
