<svg xmlns="http://www.w3.org/2000/svg" viewBox="0 0 256 256" width="256" height="256" aria-hidden="true">
  <g fill-rule="evenodd" stroke-linejoin="round" stroke-linecap="round">
    <path d="M 52 112 Q 44 64 88 36 Q 128 16 168 36 Q 212 64 204 112 Q 210 88 192 56 Q 128 28 64 56 Q 46 88 52 112 Z" fill="#3d2314" stroke="#2d1810" stroke-width="3.5"/>
    <path d="M 64 56 Q 128 32 192 56 L 180 40 Q 128 24 76 40 Z" fill="#f07830" stroke="#2d1810" stroke-width="3"/>
    <path d="M 80 36 L 92 14 L 108 38 Z" fill="#f5a830" stroke="#2d1810" stroke-width="3"/>
    <path d="M 120 22 L 132 6 L 144 28 Z" fill="#f5a830" stroke="#2d1810" stroke-width="3"/>
    <path d="M 152 36 L 168 12 L 182 42 Z" fill="#f5a830" stroke="#2d1810" stroke-width="3"/>
    <path d="M 60 96 Q 128 76 196 96" fill="none" stroke="#f07830" stroke-width="4"/>
    <path d="M 68 108 L 78 84 M 188 108 L 178 84" fill="none" stroke="#f5d547" stroke-width="2.5" stroke-linecap="round"/>
  </g>
</svg>
