<svg xmlns="http://www.w3.org/2000/svg" viewBox="0 0 256 256" width="256" height="256" aria-hidden="true">
  <g fill-rule="evenodd" stroke-linejoin="round" stroke-linecap="round">
    <path d="M 60 100 Q 52 58 96 40 Q 128 28 160 40 Q 204 58 196 100 Q 202 76 184 50 Q 128 34 72 50 Q 54 76 60 100 Z" fill="#3d2314" stroke="#2d1810" stroke-width="3.5"/>
    <path d="M 72 50 Q 128 36 184 50 L 174 42 Q 128 30 82 42 Z" fill="#2d1810" stroke="none"/>
    <path d="M 68 78 Q 128 66 188 78 L 180 88 Q 128 76 76 88 Z" fill="#3d2314" stroke="#2d1810" stroke-width="2.5"/>
    <path d="M 80 96 L 90 74 M 176 96 L 166 74" fill="none" stroke="#f07830" stroke-width="3" stroke-linecap="round"/>
    <path d="M 94 40 L 104 26 L 114 42 M 142 42 L 152 26 L 162 40" fill="none" stroke="#f5a830" stroke-width="2.5" stroke-linecap="round"/>
    <ellipse cx="128" cy="34" rx="6" ry="4" fill="#f5a830" stroke="#2d1810" stroke-width="2"/>
  </g>
</svg>
