<svg xmlns="http://www.w3.org/2000/svg" viewBox="0 0 256 256" width="256" height="256" aria-hidden="true">
  <g fill-rule="evenodd" stroke-linejoin="round" stroke-linecap="round">
    <path d="M 72 96 Q 68 64 96 52 Q 128 42 160 52 Q 188 64 184 96 Q 190 80 178 58 Q 128 44 78 58 Q 66 80 72 96 Z" fill="#3d2314" stroke="#2d1810" stroke-width="3.5"/>
    <path d="M 78 58 Q 128 48 178 58 L 170 50 Q 128 40 86 50 Z" fill="#2d1810" stroke="none"/>
    <rect x="70" y="78" width="116" height="14" rx="7" fill="#3d2314" stroke="#2d1810" stroke-width="3"/>
    <path d="M 82 92 L 90 72 M 174 92 L 166 72" fill="none" stroke="#f07830" stroke-width="3" stroke-linecap="round"/>
    <path d="M 96 52 L 104 40 L 112 52 M 144 52 L 152 40 L 160 52" fill="none" stroke="#f5a830" stroke-width="2.5" stroke-linecap="round"/>
  </g>
</svg>
