<svg xmlns="http://www.w3.org/2000/svg" viewBox="0 0 256 256" width="256" height="256" aria-hidden="true">
  <g fill-rule="evenodd" stroke-linejoin="round" stroke-linecap="round">
<path d="M 56 104 Q 48 56 96 38 Q 128 26 160 38 Q 208 56 200 104 Q 204 82 186 60 Q 128 42 70 60 Q 52 82 56 104 Z" fill="#2d2318" stroke="#2d1810" stroke-width="3.5"/>
    <path d="M 70 60 Q 128 48 186 60" fill="none" stroke="#453528" stroke-width="3.5"/>
    <path d="M 64 94 Q 128 84 192 94 L 188 102 Q 128 92 68 102 Z" fill="#2d2318" stroke="#2d1810" stroke-width="3"/>
    <path d="M 172 98 Q 198 112 206 148 Q 214 188 200 220 Q 188 228 182 196 Q 176 160 168 118 Z" fill="#2d2318" stroke="#2d1810" stroke-width="3.5"/>
    <path d="M 200 220 Q 218 210 222 178 Q 224 148 210 128" fill="none" stroke="#453528" stroke-width="3" stroke-linecap="round"/>
  </g>
</svg>
