<svg xmlns="http://www.w3.org/2000/svg" viewBox="0 0 256 256" width="256" height="256" aria-hidden="true">
  <g fill-rule="evenodd" stroke-linejoin="round" stroke-linecap="round">
    <path d="M 24 168 L 52 148 L 128 162 L 204 148 L 232 168 L 232 256 L 24 256 Z" fill="#1a2744" stroke="#2d1810" stroke-width="3.5"/>
    <path d="M 52 148 L 128 162 L 204 148 L 192 178 L 128 188 L 64 178 Z" fill="#0f1828" stroke="none"/>
    <path d="M 88 148 L 128 156 L 168 148 L 168 198 L 128 206 L 88 198 Z" fill="#243a5c" stroke="#2d1810" stroke-width="3.5"/>
    <path d="M 108 156 L 128 160 L 148 156 L 148 188 L 128 192 L 108 188 Z" fill="#f8fafc" stroke="#2d1810" stroke-width="3"/>
    <text x="128" y="184" text-anchor="middle" font-family="Arial Black, sans-serif" font-size="28" font-weight="900" fill="#f8fafc" stroke="#2d1810" stroke-width="1.5" paint-order="stroke">15</text>
    <path d="M 76 148 Q 128 138 180 148" fill="none" stroke="#d4a017" stroke-width="4"/>
    <path d="M 64 168 L 64 210 M 192 168 L 192 210" fill="none" stroke="#d4a017" stroke-width="3"/>
    <ellipse cx="128" cy="152" rx="22" ry="8" fill="#f8fafc" stroke="#2d1810" stroke-width="3"/>
  </g>
</svg>
