<svg xmlns="http://www.w3.org/2000/svg" viewBox="0 0 256 256" width="256" height="256" aria-hidden="true">
  <g fill-rule="evenodd" stroke-linejoin="round" stroke-linecap="round">
    <path d="M 22 166 L 50 146 L 128 160 L 206 146 L 234 166 L 234 256 L 22 256 Z" fill="#1a2744" stroke="#2d1810" stroke-width="3.5"/>
    <path d="M 50 146 L 128 160 L 206 146 L 194 176 L 128 186 L 62 176 Z" fill="#0f1828" stroke="none"/>
    <path d="M 86 146 L 128 154 L 170 146 L 170 196 L 128 204 L 86 196 Z" fill="#1e3a5f" stroke="#2d1810" stroke-width="3.5"/>
    <path d="M 106 154 L 128 158 L 150 154 L 150 186 L 128 190 L 106 186 Z" fill="#f8fafc" stroke="#2d1810" stroke-width="3"/>
    <text x="128" y="182" text-anchor="middle" font-family="Arial Black, sans-serif" font-size="28" font-weight="900" fill="#f8fafc" stroke="#2d1810" stroke-width="1.5" paint-order="stroke">15</text>
    <path d="M 74 146 Q 128 134 182 146" fill="none" stroke="#d4a017" stroke-width="5"/>
    <path d="M 58 166 L 58 214 M 198 166 L 198 214" fill="none" stroke="#d4a017" stroke-width="3.5"/>
    <path d="M 92 146 L 164 146 L 160 158 L 96 158 Z" fill="#d4a017" stroke="#2d1810" stroke-width="2.5" opacity="0.95"/>
    <ellipse cx="128" cy="150" rx="24" ry="9" fill="#f8fafc" stroke="#2d1810" stroke-width="3"/>
    <path d="M 118 148 L 128 142 L 138 148 L 136 156 L 120 156 Z" fill="#f07830" stroke="#2d1810" stroke-width="2"/>
  </g>
</svg>
